<?xml version="1.0" encoding="utf-8"?>
<!-- Generator: Adobe Illustrator 27.5.0, SVG Export Plug-In . SVG Version: 6.00 Build 0)  -->
<svg version="1.1" id="BACKGROUND" xmlns="http://www.w3.org/2000/svg" xmlns:xlink="http://www.w3.org/1999/xlink" x="0px" y="0px"
	 viewBox="0 0 750 500" style="enable-background:new 0 0 750 500;" xml:space="preserve">
<g>
	<rect style="fill-rule:evenodd;clip-rule:evenodd;fill:#504E9C;" width="750" height="500"/>
	<g>
		<defs>
			<rect id="SVGID_1_" width="750" height="500"/>
		</defs>
		<clipPath id="SVGID_00000065754042307126940320000005828550783529304484_">
			<use xlink:href="#SVGID_1_"  style="overflow:visible;"/>
		</clipPath>
		<g style="clip-path:url(#SVGID_00000065754042307126940320000005828550783529304484_);">
			<path style="fill-rule:evenodd;clip-rule:evenodd;fill:none;stroke:#282361;stroke-width:2;stroke-miterlimit:10;" d="
				M-28.34-18.25c0,0,124.428-17.658,175.961,70.326S95.399,187.447,122.71,254.77C191.684,424.79-37.343,410.698,68.663,512.437"/>
			
				<path style="fill-rule:evenodd;clip-rule:evenodd;fill:none;stroke:#3E3880;stroke-linecap:round;stroke-linejoin:round;stroke-miterlimit:10;stroke-dasharray:4;" d="
				M45.698,512.437C15.57,483.521-11.917,451.088,57,396.696c39.327-31.038,65.905-67.816,35.669-138.53
				c-37.05-86.651,77.294-122.113,21.472-206.091C64.259-22.966-37.997,9.537-37.997,9.537"/>
			<path style="fill-rule:evenodd;clip-rule:evenodd;fill:none;stroke:#8A85EC;stroke-width:4;stroke-miterlimit:10;" d="
				M22.734,512.437c0,0-103.789-45.509-5.118-115.176c47.826-33.768,75.407-67.513,45.012-135.697
				c-47.17-105.817,78.761-129.928,18.034-209.488C32.983-10.389-47.654,37.324-47.654,37.324"/>
			
				<path style="fill-rule:evenodd;clip-rule:evenodd;fill:none;stroke:#3E3880;stroke-linecap:round;stroke-linejoin:round;stroke-miterlimit:10;stroke-dasharray:4;" d="
				M126.01,441.202c-19.279,45.962-10.9,61.012,25.469,51.059c36.368-9.953,46.74-17.973,83.446-10.884
				c39.34,7.597,59.426-43.499,10.259-91.415C209.241,354.934,156.343,368.887,126.01,441.202z"/>
			<path style="fill-rule:evenodd;clip-rule:evenodd;fill:none;stroke:#8A85EC;stroke-miterlimit:10;" d="M236.388,466.461
				c27.055-1.697,31.707-51.996-12.795-69.623c-23.657-9.371-67.794-5.765-80.054,30.962c-12.259,36.727,1.811,60.088,26.767,51.965
				C195.262,471.641,210.873,468.061,236.388,466.461z"/>
			<path style="fill-rule:evenodd;clip-rule:evenodd;fill:none;stroke:#282361;stroke-width:2;stroke-miterlimit:10;" d="
				M223.352,454.561c5.371-2.93,9.741-6.685,12.01-11.697c6.621-14.623-7.171-31.753-20.328-36.944
				c-14.632-5.773-32.645-3.104-44.587,7.292c-9.085,7.908-14.683,21.918-14.893,33.814c-0.17,9.626,5.278,19.793,15.536,21.346
				c5.064,0.767,10.171-0.702,15.083-2.156C196.088,463.281,211.968,460.772,223.352,454.561z"/>
			<path style="fill-rule:evenodd;clip-rule:evenodd;fill:none;stroke:#282361;stroke-width:2;stroke-miterlimit:10;" d="
				M175.657,431.582c-4.344,17.285,1.41,27.651,11.034,23.188c9.624-4.463,16.893-5.665,24.685-9.402
				c9.964-4.779,12.635-23.519-4.904-30.365C197.148,411.363,180.001,414.296,175.657,431.582z"/>
			<path style="fill-rule:evenodd;clip-rule:evenodd;fill:none;stroke:#282361;stroke-width:3;stroke-miterlimit:10;" d="
				M375.942,565.963c-70.261-52.509,9.831-24.67,23.416-90.997c5.758-28.11,19.566-43.675,33.566-52.279
				c15.578-9.574,33.677-6.469,51.691-3.334c51.895,9.03,87.186-62.741,45.387-118.631c-32.116-42.943-57.753-83.494-34.775-121.256
				c10.789-17.73,21.044-29.485,60.354-36.608c45.24-8.198,105.974-15.868,122.272-78.058
				c28.53-108.862,77.186-99.721,137.858-25.224"/>
			<path style="fill-rule:evenodd;clip-rule:evenodd;fill:none;stroke:#3E3880;stroke-width:2;stroke-miterlimit:10;" d="
				M364.652,562.027c-70.261-52.509,9.831-24.67,23.416-90.997c5.757-28.11,19.565-43.675,33.566-52.279
				c15.578-9.574,30.07-16.305,47.322-11.303c58.291,16.899,81.644-57.884,39.191-114.691
				c-17.783-23.796-41.639-51.102-38.232-95.082c2.739-35.352,38.065-61.739,78.74-68.669
				c200.087-34.091,66.873-135.814,127.38-218.07"/>
			
				<path style="fill-rule:evenodd;clip-rule:evenodd;fill:none;stroke:#3E3880;stroke-linecap:round;stroke-linejoin:round;stroke-miterlimit:10;stroke-dasharray:4;" d="
				M353.362,558.091c-70.261-52.509,9.831-24.67,23.416-90.997c5.758-28.11,19.565-43.675,33.566-52.279
				c15.578-9.574,25.191-21.948,42.953-19.272c52.965,7.98,78.308-55.914,28.778-108.334
				c-56.788-60.262-29.771-155.678,49.035-170.683c111.365-21.204,142.527-53.394,91.107-164.459"/>
			<path style="fill-rule:evenodd;clip-rule:evenodd;fill:none;stroke:#8A85EC;stroke-miterlimit:10;" d="M342.072,554.155
				c-70.261-52.509,9.831-24.67,23.416-90.997c5.758-28.11,19.566-43.675,33.566-52.279c15.578-9.573,20.53-30.137,38.584-27.241
				c58.902,9.447,79.987-45.094,28.989-97.869c-57.75-59.762-26.174-115.529-6.516-147.269
				c12.559-20.279,32.833-27.943,70.635-31.564C641.218,96.355,652.618,19.262,603.361-18.25
				c-15.309-11.659-44.903-22.997-44.903-50.251"/>
			<path style="fill-rule:evenodd;clip-rule:evenodd;fill:none;stroke:#282361;stroke-width:2;stroke-miterlimit:10;" d="
				M797.625,563.758c15.666-8.633,27.535-22.808,33.248-39.758c12.979-38.51,20.493-93.165-39.643-123.143
				c-99.986-49.843-87.148,80.939-161.218,65.864c-115.777-23.563-194.508,14.24-124.968,152.732
				C543.148,695.341,732.659,599.559,797.625,563.758z"/>
			<path style="fill-rule:evenodd;clip-rule:evenodd;fill:none;stroke:#8A85EC;stroke-miterlimit:10;" d="M702.656,543.899
				C809.457,500,780.019,442.875,750,434.417c-59.204-16.681-29.927,55.578-106.628,50.667
				c-65.751-4.21-124.252,18.626-75.638,63.999C596.548,575.977,670.811,556.988,702.656,543.899z"/>
			<path style="fill-rule:evenodd;clip-rule:evenodd;fill:none;stroke:#282361;stroke-width:2;stroke-miterlimit:10;" d="
				M799.764,73.278c0,0-15.938-60.338-71.195-25.287c-52.223,33.127-31.822,69.7-104.344,113.69
				c-59.192,35.904-40.946,95.957,47.654,104.574c110.145,10.713,123.484,78.281,177.772,41.691
				C903.938,271.355,799.764,73.278,799.764,73.278z"/>
			<path style="fill-rule:evenodd;clip-rule:evenodd;fill:none;stroke:#8A85EC;stroke-width:2;stroke-miterlimit:10;" d="
				M681.771,252.882c92.039,8.952,103.186,65.414,148.55,34.838c43.499-29.319-32.618-175.094-35.598-184.437
				c-2.665-8.356-28.44-43.226-69.826-21.346c-18.022,9.527-27.815,18.764-35.502,29.342
				c-10.694,14.716-18.971,30.115-41.256,50.933C604.171,203.286,611.024,246.002,681.771,252.882z"/>
			
				<path style="fill-rule:evenodd;clip-rule:evenodd;fill:none;stroke:#3E3880;stroke-linecap:round;stroke-linejoin:round;stroke-miterlimit:10;stroke-dasharray:4;" d="
				M691.663,239.51c73.934,7.191,82.888,52.546,119.328,27.985c32.709-22.046-15.35-115.52-21.31-134.206
				c-5.331-16.713-24.01-37.966-50.997-28.753c-13.808,4.714-23.677,10.945-31.217,19.038
				c-11.185,12.005-20.442,24.193-35.415,39.171C635.875,198.934,638.771,234.365,691.663,239.51z"/>
			<path style="fill-rule:evenodd;clip-rule:evenodd;fill:none;stroke:#282361;stroke-width:2;stroke-miterlimit:10;" d="
				M784.639,163.294c-14.548-45.611-42.848-40.061-59.1-27.426c-53.644,41.706-68.892,85.902-23.984,90.269
				c55.828,5.43,62.589,39.678,90.106,21.132C813.582,232.494,793.579,191.323,784.639,163.294z"/>
			<path style="fill-rule:evenodd;clip-rule:evenodd;fill:none;stroke:#282361;stroke-width:2;stroke-miterlimit:10;" d="
				M744.975,186.312c-0.692-3.433-1.89-6.779-3.351-9.657c-1.92-3.783-5.357-7.054-9.563-7.647
				c-13.276-1.871-27.941,12.245-32.938,23.561c-1.62,3.67-2.026,8.1-0.086,11.611c2.139,3.873,6.61,5.847,10.938,6.769
				C725.957,214.357,748.984,206.192,744.975,186.312z"/>
			<path style="fill-rule:evenodd;clip-rule:evenodd;fill:none;stroke:#3E3880;stroke-width:2;stroke-miterlimit:10;" d="
				M178.349-186.386c-102.57,0-29.562,270.43,57.392,204.439c45.883-34.822,140.282-14.985,205.676,16.765
				c76.395,37.09,134.524-7.68,97.502-43.673c-39.787-38.682-4.301-128.746-130.005-142.397
				C254.915-167.975,256.87-186.386,178.349-186.386z"/>
			<path style="fill-rule:evenodd;clip-rule:evenodd;fill:none;stroke:#3E3880;stroke-miterlimit:10;" d="M463.249,310.479
				c9.312,20.03,13.31,41.752-1.995,52.611c-11.648,8.264-28.538,6.564-41.944,9.099c-20.006,3.783-38.44,12.936-59.238,12.987
				c-25.282,0.062-37.914-20.995-31.35-44.379c4.331-15.43,14.151-28.491,20.57-43.012c7.398-16.737,7.467-34.955,26.525-43.361
				c21.19-9.346,46.518,1.679,61.656,17.258C444.548,278.964,455.662,294.16,463.249,310.479z"/>
			<path style="fill-rule:evenodd;clip-rule:evenodd;fill:none;stroke:#8A85EC;stroke-miterlimit:10;" d="M401.288,262.63
				c18.908,3.539,33.535,19.136,42.845,35.089c7.387,12.658,20.022,39.171,7.447,52.217c-7.003,7.265-19.474,5.975-28.645,7.118
				c-18.795,2.343-45.196,17.232-63.299,6.198c-8.224-5.013-12.124-13.503-10.364-22.832c1.988-10.534,8.54-19.687,11.038-30.082
				c3.686-15.341,6.698-34.68,21.216-43.848C388.055,262.366,394.745,261.406,401.288,262.63z"/>
			<path style="fill-rule:evenodd;clip-rule:evenodd;fill:none;stroke:#282361;stroke-width:2;stroke-miterlimit:10;" d="
				M403.305,277.203c14.492,1.934,27.968,17.726,34.852,33.309c2.446,5.536,4.06,11.045,4.591,15.898
				c0.499,4.551-0.638,9.526-4.033,12.597c-4.22,3.817-10.56,3.766-16.241,3.44c-13.898-0.799-32.586-0.791-41.962-12.931
				c-4.661-6.035-5.816-14.102-5.495-21.72c0.289-6.835,1.7-13.784,5.348-19.571C385.191,280.569,394.252,275.994,403.305,277.203z"
				/>
			<path style="fill-rule:evenodd;clip-rule:evenodd;fill:none;stroke:#8A85EC;stroke-miterlimit:10;" d="M426.302,310.222
				c1.454,3.292,2.414,6.568,2.73,9.453c0.297,2.706-0.379,5.664-2.398,7.491c-2.509,2.27-6.279,2.24-9.657,2.045
				c-8.264-0.475-19.376-0.47-24.951-7.689c-2.772-3.589-3.458-8.385-3.267-12.915c0.172-4.064,1.011-8.196,3.18-11.637
				c2.87-4.552,8.257-7.272,13.64-6.554C414.196,291.566,422.209,300.956,426.302,310.222z"/>
			<g>
				<path style="fill-rule:evenodd;clip-rule:evenodd;fill:none;stroke:#8A85EC;stroke-miterlimit:10;" d="M615.816,357.436
					c25.679,5.992,54.535-26.324,40.621-33.81C634.123,311.619,590.137,351.444,615.816,357.436z"/>
				
					<path style="fill-rule:evenodd;clip-rule:evenodd;fill:none;stroke:#3E3880;stroke-linecap:round;stroke-linejoin:round;stroke-miterlimit:10;stroke-dasharray:4;" d="
					M671.993,327.301c0.823-9.737-3.964-18.155-16.095-20.571c-31.217-6.216-58.363,28.549-63.3,49.059
					c-0.759,3.115-1.156,6.553,1.154,9.539c1.729,2.234,4.661,3.723,7.703,4.342c16.533,3.367,35.853-3.046,50.39-13.605
					C663.746,347.423,671.244,336.159,671.993,327.301z"/>
				<path style="fill-rule:evenodd;clip-rule:evenodd;fill:none;stroke:#282361;stroke-width:2;stroke-miterlimit:10;" d="
					M651.449,367.802c15.845-9.554,29.157-22.605,36.1-36.825c8.079-16.548,3.501-33.294-14.365-40.067
					c-44.206-16.758-79.789,32.932-98.079,65.98c-2.784,5.03-5.439,10.95-3.417,16.332c1.502,3.999,5.373,6.732,9.469,7.954
					C602.631,387.578,629.475,381.052,651.449,367.802z"/>
			</g>
			<path style="fill-rule:evenodd;clip-rule:evenodd;fill:none;stroke:#8A85EC;stroke-miterlimit:10;" d="M169.336,217.566
				c-1.056,10.613,2.432,21.772,12.425,31.902c48.107,48.768,110.021-15.946,60.734-73.495
				C220.261,150.012,172.306,187.721,169.336,217.566z"/>
			<path style="fill-rule:evenodd;clip-rule:evenodd;fill:none;stroke:#282361;stroke-width:2;stroke-miterlimit:10;" d="
				M183.092,217.538c-0.743,7.463,1.71,15.309,8.736,22.431c33.826,34.291,80.016-35.234,42.705-51.677
				C212.54,178.6,185.181,196.553,183.092,217.538z"/>
			<path style="fill-rule:evenodd;clip-rule:evenodd;fill:none;stroke:#3E3880;stroke-miterlimit:10;" d="M201.611,217.5
				c-0.321,3.221,0.738,6.608,3.771,9.683c14.602,14.802,34.54-15.209,18.434-22.307C214.323,200.692,202.513,208.442,201.611,217.5
				z"/>
			<path style="fill-rule:evenodd;clip-rule:evenodd;fill:none;stroke:#282361;stroke-width:2;stroke-miterlimit:10;" d="
				M401.69,212.27c0,0,13.336-5.357,29.968-49.438c11.112-29.45,10.842-72.948-41.769-64.431
				c-54.063,8.752-104.148,17.092-78.953,66.731C330.115,202.916,374.743,229.186,401.69,212.27z"/>
			<path style="fill-rule:evenodd;clip-rule:evenodd;fill:none;stroke:#8A85EC;stroke-miterlimit:10;" d="M421.946,159.106
				c8.207-24.804,3.258-55.954-36.597-49.948c-42.145,6.254-82.097,16.077-62.449,55.393c4.052,8.13,9.66,15.441,16.002,21.656
				c12.456,12.215,27.936,20.303,41.984,20.263c5.708-0.012,11.013-1.499,15.77-4.284
				C399.751,200.374,410.816,192.747,421.946,159.106z"/>
			<path style="fill-rule:evenodd;clip-rule:evenodd;fill:none;stroke:#3E3880;stroke-miterlimit:10;" d="M412.234,155.38
				c5.178-20.261-4.327-38.96-31.425-35.464c-30.227,3.757-60.047,15.063-45.945,44.055c3.059,6.317,7.465,11.795,12.364,16.454
				c9.488,9.035,21.19,15.209,32.31,15.009c4.398-0.074,8.451-1.241,12.085-3.331C397.833,188.528,406.346,178.415,412.234,155.38z"
				/>
			<path style="fill-rule:evenodd;clip-rule:evenodd;fill:none;stroke:#282361;stroke-width:2;stroke-miterlimit:10;" d="
				M386.588,182.019c9.375-5.217,14.711-18.116,15.934-30.366c3.608-36.15-70.951-21.555-55.695,11.736
				c2.065,4.505,5.27,8.15,8.726,11.253c6.519,5.854,14.445,10.115,22.636,9.756C381.277,184.262,384.077,183.416,386.588,182.019z"
				/>
			<path style="fill-rule:evenodd;clip-rule:evenodd;fill:none;stroke:#8A85EC;stroke-width:2;stroke-miterlimit:10;" d="
				M550.163,159.782c15.355-1.359,27.708,11.52,18.362,26.551c-18.471,29.708,28.368,52.725,24.048,74.483
				c-5.161,25.994-51.731,19.346-78.764-24.978C499.287,212.028,508.251,163.491,550.163,159.782z"/>
			<path style="fill-rule:evenodd;clip-rule:evenodd;fill:none;stroke:#282361;stroke-width:2;stroke-miterlimit:10;" d="
				M542.977,192.273c7.728,0.062,8.061,7.397,8.703,14.324c0.851,9.094,16.651,27.791,4.468,34.786
				c-3.659,2.101-8.378,1.679-12.146-0.221c-3.768-1.899-6.725-5.086-9.281-8.443c-9.197-12.075-15.318-36.703,5.514-40.208
				C541.24,192.342,542.151,192.266,542.977,192.273z"/>
			<path style="fill-rule:evenodd;clip-rule:evenodd;fill:none;stroke:#8A85EC;stroke-width:4;stroke-miterlimit:10;" d="
				M554.5-50.839c48.862,26.244,72.516,104.25,21.441,128.368c-47.657,22.504-74.045,18.352-126.549,1.493
				C344.874,45.461,213.37,79.699,315.548,208.656c84.761,106.975-76.22,115.383-11.464,174.212
				c66.909,60.785-56.649,137.561-31.502,161.031"/>
			<path style="fill-rule:evenodd;clip-rule:evenodd;fill:none;stroke:#282361;stroke-width:3;stroke-miterlimit:10;" d="
				M-4.199-49.517C91.731-43.719,162.203-18.25,177.106,79.022c7.282,47.533-20.11,103.597-31.995,138.838
				c-11.318,33.561,9.928,70.097,57.274,72.442c94.598,4.684,103.765-57.612,66.767-118.168
				c-26.775-43.824-15.299-80.096,3.986-102.631c17.857-20.867,43.687-44.332,128.472-21.714
				c51.594,13.764,105.163,32.883,136.916,22.322c60.251-20.04,23.652-81.901,0-107.257"/>
			<path style="fill-rule:evenodd;clip-rule:evenodd;fill:none;stroke:#282361;stroke-width:2;stroke-miterlimit:10;" d="
				M230.467,88.7c-1.269,4.737-4.495,13.184-8.202,15.448c-15.753,9.624-12.797-48.101,5.451-29.953
				c3.356,3.338,4.095,8.634,3.061,13.252C230.693,87.825,230.589,88.246,230.467,88.7z"/>
			<path style="fill-rule:evenodd;clip-rule:evenodd;fill:none;stroke:#8A85EC;stroke-miterlimit:10;" d="M240.642,88.858
				c-2.971,10.077-6.662,21.357-12.62,30.122c-6.789,9.988-17.287,6.672-23.147-2.109c-15.579-23.346-8.125-83.741,31.622-64.077
				c4.011,1.984,7.512,5.381,8.71,9.693c1.068,3.844,0.232,7.935-0.709,11.812C243.337,79.076,242.082,83.975,240.642,88.858z"/>
			<path style="fill-rule:evenodd;clip-rule:evenodd;fill:none;stroke:#282361;stroke-width:2;stroke-miterlimit:10;" d="
				M-23.184,51.104c0,0,61.502-7.391,75.155,32.99C69.993,137.395,0,132.621-11.387,246.369L-23.184,51.104z"/>
			<path style="fill-rule:evenodd;clip-rule:evenodd;fill:none;stroke:#282361;stroke-width:2;stroke-miterlimit:10;" d="
				M-18.302,399.773c0,0,67.52-37.706,62.259-84.181s-72.297-49.426-72.297-49.426L-18.302,399.773z"/>
			<path style="fill-rule:evenodd;clip-rule:evenodd;fill:none;stroke:#8A85EC;stroke-width:4;stroke-miterlimit:10;" d="
				M868.383,456.831c0,0-43.67-118.615-126.964-93.75s-65.9,87.222-117.771,83.118c-62.906-4.977-80.169-6.123-127.109,12.804
				c-19.312,7.787-53.269,44.193-53.68,71.124c-1.377,90.202,48.363,110.218,48.363,110.218"/>
			<path style="fill:none;stroke:#3E3880;stroke-width:2;stroke-miterlimit:10;" d="M813.569,349.542
				c0,0-60.362-25.71-103.957,10.06c-43.595,35.77-64.833,73.776-90.543,63.716c-25.71-10.06-54.773-15.719-86.072,1.642
				c-31.299,17.361-79.365,8.418-95.014,55.366c-15.649,46.948,0,71.54,0,71.54"/>
			<g>
				<path style="fill:none;stroke:#3E3880;stroke-linecap:round;stroke-linejoin:round;stroke-dasharray:4.0121,4.0121;" d="
					M175.869,184.419c-10.163,12.613-43.073,77.718,19.678,92.591c62.752,14.873,99.57-30.823,73.64-81.571
					C228.109,115.043,186.032,171.806,175.869,184.419z"/>
			</g>
			<path style="fill-rule:evenodd;clip-rule:evenodd;fill:none;stroke:#8A85EC;stroke-miterlimit:10;" d="M229.172,518.702
				c-11.468-6.833,76.784-24.863,57.486-91.378c-7.058-24.326-25.697-42.571-45.705-54.032
				c-33.286-19.067-45.471-26.624-95.069,12.821c-34.262,27.248-77.614,101.63-23.047,132.589"/>
			<path style="fill-rule:evenodd;clip-rule:evenodd;fill:none;stroke:#282361;stroke-width:2;stroke-miterlimit:10;" d="
				M221.503,532.269c0,0,120.513-60.548,72.631-129.208C204.087,273.94,133.24,371.502,90.987,436.994
				c-37.7,58.435,11.756,95.502,50.126,105.39"/>
		</g>
		
			<path style="clip-path:url(#SVGID_00000065754042307126940320000005828550783529304484_);fill-rule:evenodd;clip-rule:evenodd;fill:none;stroke:#3E3880;stroke-miterlimit:10;" d="
			M-22.372,64.534c0,0,48.448-9.237,58.771,22.479C46.722,118.729-13.18,185.58-13.18,185.58L-22.372,64.534z"/>
		
			<path style="clip-path:url(#SVGID_00000065754042307126940320000005828550783529304484_);fill-rule:evenodd;clip-rule:evenodd;fill:none;stroke:#8A85EC;stroke-miterlimit:10;" d="
			M-12.778,78.075c0,0,29.646-5.652,35.963,13.755c6.317,19.408-30.338,60.315-30.338,60.315L-12.778,78.075z"/>
		
			<path style="clip-path:url(#SVGID_00000065754042307126940320000005828550783529304484_);fill-rule:evenodd;clip-rule:evenodd;fill:none;stroke:#3E3880;stroke-linecap:round;stroke-linejoin:round;stroke-miterlimit:10;stroke-dasharray:4;" d="
			M-8.293,274.777c0,0,49.224,16.714,40.843,57.491c-8.381,40.777-54.923,62.185-54.923,62.185L-8.293,274.777z"/>
		
			<path style="clip-path:url(#SVGID_00000065754042307126940320000005828550783529304484_);fill-rule:evenodd;clip-rule:evenodd;fill:none;stroke:#8A85EC;stroke-miterlimit:10;" d="
			M-6.761,292.773c0,0,25.202,11.688,20.911,40.202c-4.291,28.514-28.119,43.483-28.119,43.483L-6.761,292.773z"/>
	</g>
</g>
</svg>
