<svg xmlns="http://www.w3.org/2000/svg" version="1.1" xmlns:xlink="http://www.w3.org/1999/xlink" xmlns:svgjs="http://svgjs.dev/svgjs" width="1440" height="560" preserveAspectRatio="none" viewBox="0 0 1440 560"><g mask="url(&quot;#SvgjsMask1003&quot;)" fill="none"><rect width="1440" height="560" x="0" y="0" fill="url(&quot;#SvgjsLinearGradient1004&quot;)"></rect><path d="M1512 560L0 560 L0 286.09Q77.17 243.26, 120 320.43Q179.14 307.57, 192 366.71Q221.26 323.97, 264 353.23Q309.3 278.53, 384 323.84Q400.73 268.56, 456 285.29Q521.42 230.71, 576 296.13Q665.97 266.1, 696 356.07Q750.71 290.78, 816 345.49Q892.06 301.55, 936 377.6Q963.12 332.72, 1008 359.84Q1030.01 261.85, 1128 283.85Q1193.58 229.43, 1248 295Q1329.05 256.05, 1368 337.1Q1390.99 288.1, 1440 311.09Q1469.13 268.23, 1512 297.36z" fill="#182f5d"></path><path d="M1488 560L0 560 L0 380.82Q55.08 315.9, 120 370.99Q211.63 342.63, 240 434.26Q262.58 384.84, 312 407.41Q377.22 352.63, 432 417.86Q504.83 370.69, 552 443.52Q561.35 380.87, 624 390.21Q669.76 315.97, 744 361.73Q844.53 342.26, 864 442.79Q916.79 375.58, 984 428.37Q1027.17 351.55, 1104 394.72Q1186.9 357.62, 1224 440.52Q1243.76 340.28, 1344 360.04Q1385.79 329.83, 1416 371.62Q1485.34 368.96, 1488 438.29z" fill="#25467d"></path><path d="M1560 560L0 560 L0 448.14Q51 427.14, 72 478.14Q147.19 433.33, 192 508.52Q197.68 442.19, 264 447.87Q305.18 417.05, 336 458.22Q391.68 441.9, 408 497.58Q462.71 432.29, 528 487.01Q559.67 398.68, 648 430.35Q726.94 389.29, 768 468.23Q819.38 447.62, 840 499Q890.04 429.04, 960 479.09Q1002.06 401.15, 1080 443.21Q1173.53 416.74, 1200 510.26Q1219.29 409.55, 1320 428.84Q1389.04 377.88, 1440 446.91Q1506.62 393.52, 1560 460.14z" fill="#356cb1"></path><path d="M1488 560L0 560 L0 490.74Q91.52 462.26, 120 553.79Q162.31 476.1, 240 518.41Q286.44 444.85, 360 491.29Q448.66 459.95, 480 548.6Q526 522.6, 552 568.59Q588.28 484.87, 672 521.15Q700.28 477.43, 744 505.72Q830.43 472.15, 864 558.58Q930.8 505.38, 984 572.18Q1010.11 478.29, 1104 504.4Q1180.07 460.46, 1224 536.53Q1291.13 483.66, 1344 550.8Q1357.14 491.94, 1416 505.09Q1458.03 475.12, 1488 517.15z" fill="white"></path></g><defs><mask id="SvgjsMask1003"><rect width="1440" height="560" fill="#ffffff"></rect></mask><linearGradient x1="15.28%" y1="-39.29%" x2="84.72%" y2="139.29%" gradientUnits="userSpaceOnUse" id="SvgjsLinearGradient1004"><stop stop-color="#0e2a47" offset="0"></stop><stop stop-color="#00459e" offset="1"></stop></linearGradient></defs></svg>