<svg xmlns="http://www.w3.org/2000/svg" version="1.1" xmlns:xlink="http://www.w3.org/1999/xlink" xmlns:svgjs="http://svgjs.dev/svgjs" width="1440" height="560" preserveAspectRatio="none" viewBox="0 0 1440 560"><g mask="url(&quot;#SvgjsMask1025&quot;)" fill="none"><rect width="1440" height="560" x="0" y="0" fill="url(&quot;#SvgjsLinearGradient1026&quot;)"></rect><path d="M1488 560L0 560 L0 367.98Q-2.83 293.15, 72 290.33Q137.82 236.15, 192 301.98Q263.41 301.39, 264 372.8Q273.58 310.38, 336 319.97Q408.04 272.01, 456 344.06Q485.41 301.47, 528 330.87Q569.08 251.95, 648 293.03Q696.34 269.37, 720 317.71Q761.69 239.4, 840 281.09Q881.99 251.08, 912 293.07Q990.09 299.16, 984 377.25Q972.57 293.82, 1056 282.4Q1105.18 259.58, 1128 308.76Q1180.49 241.25, 1248 293.75Q1334.6 260.35, 1368 346.95Q1438.59 297.53, 1488 368.12z" fill="rgba(93, 24, 24, 1)"></path><path d="M1488 560L0 560 L0 382.4Q68.36 378.76, 72 447.12Q85.72 388.84, 144 402.55Q212.81 351.36, 264 420.17Q311.8 395.97, 336 443.76Q352.59 388.35, 408 404.94Q478.28 355.22, 528 425.5Q551.33 328.83, 648 352.16Q691.5 323.66, 720 367.16Q817.09 344.25, 840 441.34Q876.23 357.56, 960 393.79Q974.82 336.61, 1032 351.42Q1077.93 325.36, 1104 371.29Q1173.58 368.87, 1176 438.44Q1225.2 367.64, 1296 416.84Q1326.28 327.12, 1416 357.4Q1458.9 328.3, 1488 371.2z" fill="rgba(125, 37, 37, 1)"></path><path d="M1464 560L0 560 L0 496.01Q60.53 436.54, 120 497.07Q134.74 439.81, 192 454.54Q268.1 410.64, 312 486.74Q338.54 441.28, 384 467.82Q427.04 390.86, 504 433.9Q594.99 404.88, 624 495.87Q647.97 399.84, 744 423.81Q816.3 376.12, 864 448.42Q935.54 399.96, 984 471.49Q1053.9 421.39, 1104 491.29Q1175.65 442.94, 1224 514.59Q1240.09 410.68, 1344 426.76Q1410.51 373.27, 1464 439.78z" fill="rgba(177, 53, 53, 1)"></path><path d="M1488 560L0 560 L0 586.16Q0.09 514.25, 72 514.34Q137.16 459.5, 192 524.66Q255.06 515.72, 264 578.79Q314.73 509.52, 384 560.25Q404.51 508.76, 456 529.28Q506.1 459.38, 576 509.47Q674.28 487.75, 696 586.03Q710.51 480.54, 816 495.05Q858.92 465.97, 888 508.89Q983.33 484.22, 1008 579.55Q1061.45 513, 1128 566.44Q1150.48 468.92, 1248 491.4Q1318.33 441.72, 1368 512.05Q1436.22 460.26, 1488 528.48z" fill="white"></path></g><defs><mask id="SvgjsMask1025"><rect width="1440" height="560" fill="#ffffff"></rect></mask><linearGradient x1="15.28%" y1="-39.29%" x2="84.72%" y2="139.29%" gradientUnits="userSpaceOnUse" id="SvgjsLinearGradient1026"><stop stop-color="#0e2a47" offset="0"></stop><stop stop-color="rgba(158, 0, 0, 1)" offset="1"></stop></linearGradient></defs></svg>