<svg id="visual" viewBox="0 0 1440 560" width="1440" height="560" xmlns="http://www.w3.org/2000/svg" xmlns:xlink="http://www.w3.org/1999/xlink" version="1.1"><path d="M0 63L131 102L262 141L393 152L524 191L655 186L785 124L916 74L1047 191L1178 152L1309 203L1440 231L1440 0L1309 0L1178 0L1047 0L916 0L785 0L655 0L524 0L393 0L262 0L131 0L0 0Z" fill="#332d0f"></path><path d="M0 197L131 169L262 298L393 253L524 303L655 337L785 253L916 214L1047 320L1178 225L1309 287L1440 320L1440 229L1309 201L1178 150L1047 189L916 72L785 122L655 184L524 189L393 150L262 139L131 100L0 61Z" fill="#5d4e12"></path><path d="M0 399L131 382L262 460L393 404L524 404L655 432L785 382L916 410L1047 449L1178 432L1309 432L1440 410L1440 318L1309 285L1178 223L1047 318L916 212L785 251L655 335L524 301L393 251L262 296L131 167L0 195Z" fill="#8d7111"></path><path d="M0 505L131 471L262 522L393 488L524 505L655 516L785 499L916 516L1047 516L1178 488L1309 499L1440 471L1440 408L1309 430L1178 430L1047 447L916 408L785 380L655 430L524 402L393 402L262 458L131 380L0 397Z" fill="#c3950b"></path><path d="M0 561L131 561L262 561L393 561L524 561L655 561L785 561L916 561L1047 561L1178 561L1309 561L1440 561L1440 469L1309 497L1178 486L1047 514L916 514L785 497L655 514L524 503L393 486L262 520L131 469L0 503Z" fill="#ffb900"></path></svg>