<svg id="visual" viewBox="0 0 1440 560" width="1440" height="560" xmlns="http://www.w3.org/2000/svg" xmlns:xlink="http://www.w3.org/1999/xlink" version="1.1"><path d="M0 57L131 51L262 68L393 85L524 107L655 102L785 63L916 96L1047 68L1178 51L1309 79L1440 57L1440 0L1309 0L1178 0L1047 0L916 0L785 0L655 0L524 0L393 0L262 0L131 0L0 0Z" fill="#00cc8e"></path><path d="M0 186L131 152L262 231L393 141L524 231L655 180L785 203L916 214L1047 197L1178 158L1309 197L1440 113L1440 55L1309 77L1178 49L1047 66L916 94L785 61L655 100L524 105L393 83L262 66L131 49L0 55Z" fill="#00b98a"></path><path d="M0 404L131 303L262 371L393 259L524 326L655 354L785 354L916 415L1047 399L1178 376L1309 387L1440 320L1440 111L1309 195L1178 156L1047 195L916 212L785 201L655 178L524 229L393 139L262 229L131 150L0 184Z" fill="#00a784"></path><path d="M0 471L131 393L262 410L393 309L524 421L655 415L785 432L916 471L1047 455L1178 471L1309 471L1440 376L1440 318L1309 385L1178 374L1047 397L916 413L785 352L655 352L524 324L393 257L262 369L131 301L0 402Z" fill="#00957c"></path><path d="M0 561L131 561L262 561L393 561L524 561L655 561L785 561L916 561L1047 561L1178 561L1309 561L1440 561L1440 374L1309 469L1178 469L1047 453L916 469L785 430L655 413L524 419L393 307L262 408L131 391L0 469Z" fill="#038373"></path></svg>