<svg id="visual" viewBox="0 0 1440 560" width="1440" height="560" xmlns="http://www.w3.org/2000/svg" xmlns:xlink="http://www.w3.org/1999/xlink" version="1.1"><path d="M0 91L131 141L262 231L393 180L524 96L655 225L785 197L916 147L1047 152L1178 85L1309 214L1440 107L1440 0L1309 0L1178 0L1047 0L916 0L785 0L655 0L524 0L393 0L262 0L131 0L0 0Z" fill="#b3cc00"></path><path d="M0 337L131 399L262 365L393 247L524 320L655 315L785 298L916 253L1047 320L1178 287L1309 376L1440 320L1440 105L1309 212L1178 83L1047 150L916 145L785 195L655 223L524 94L393 178L262 229L131 139L0 89Z" fill="#a8b900"></path><path d="M0 404L131 443L262 427L393 354L524 354L655 415L785 354L916 354L1047 421L1178 337L1309 455L1440 382L1440 318L1309 374L1178 285L1047 318L916 251L785 296L655 313L524 318L393 245L262 363L131 397L0 335Z" fill="#9ca600"></path><path d="M0 499L131 505L262 522L393 477L524 466L655 511L785 471L916 471L1047 505L1178 471L1309 516L1440 477L1440 380L1309 453L1178 335L1047 419L916 352L785 352L655 413L524 352L393 352L262 425L131 441L0 402Z" fill="#8f9401"></path><path d="M0 561L131 561L262 561L393 561L524 561L655 561L785 561L916 561L1047 561L1178 561L1309 561L1440 561L1440 475L1309 514L1178 469L1047 503L916 469L785 469L655 509L524 464L393 475L262 520L131 503L0 497Z" fill="#828203"></path></svg>