<svg id="visual" viewBox="0 0 1440 560" width="1440" height="560" xmlns="http://www.w3.org/2000/svg" xmlns:xlink="http://www.w3.org/1999/xlink" version="1.1"><path d="M0 113L131 79L262 141L393 63L524 124L655 124L785 79L916 85L1047 68L1178 91L1309 79L1440 113L1440 0L1309 0L1178 0L1047 0L916 0L785 0L655 0L524 0L393 0L262 0L131 0L0 0Z" fill="#220f33"></path><path d="M0 152L131 113L262 236L393 141L524 191L655 219L785 147L916 135L1047 130L1178 147L1309 141L1440 208L1440 111L1309 77L1178 89L1047 66L916 83L785 77L655 122L524 122L393 61L262 139L131 77L0 111Z" fill="#511651"></path><path d="M0 365L131 281L262 415L393 371L524 354L655 393L785 309L916 275L1047 298L1178 219L1309 309L1440 331L1440 206L1309 139L1178 145L1047 128L916 133L785 145L655 217L524 189L393 139L262 234L131 111L0 150Z" fill="#8a1365"></path><path d="M0 494L131 511L262 511L393 477L524 466L655 483L785 466L916 449L1047 505L1178 449L1309 455L1440 505L1440 329L1309 307L1178 217L1047 296L916 273L785 307L655 391L524 352L393 369L262 413L131 279L0 363Z" fill="#c6006c"></path><path d="M0 561L131 561L262 561L393 561L524 561L655 561L785 561L916 561L1047 561L1178 561L1309 561L1440 561L1440 503L1309 453L1178 447L1047 503L916 447L785 464L655 481L524 464L393 475L262 509L131 509L0 492Z" fill="#ff0066"></path></svg>