<svg id="visual" viewBox="0 0 1440 560" width="1440" height="560" xmlns="http://www.w3.org/2000/svg" xmlns:xlink="http://www.w3.org/1999/xlink" version="1.1"><path d="M0 68L131 91L262 74L393 35L524 35L655 35L785 96L916 63L1047 91L1178 91L1309 74L1440 79L1440 0L1309 0L1178 0L1047 0L916 0L785 0L655 0L524 0L393 0L262 0L131 0L0 0Z" fill="#cc0000"></path><path d="M0 163L131 186L262 141L393 141L524 85L655 113L785 169L916 119L1047 186L1178 130L1309 163L1440 130L1440 77L1309 72L1178 89L1047 89L916 61L785 94L655 33L524 33L393 33L262 72L131 89L0 66Z" fill="#b90002"></path><path d="M0 292L131 343L262 382L393 214L524 270L655 208L785 281L916 354L1047 264L1178 326L1309 337L1440 298L1440 128L1309 161L1178 128L1047 184L916 117L785 167L655 111L524 83L393 139L262 139L131 184L0 161Z" fill="#a60104"></path><path d="M0 471L131 505L262 471L393 427L524 410L655 455L785 443L916 449L1047 438L1178 499L1309 516L1440 427L1440 296L1309 335L1178 324L1047 262L916 352L785 279L655 206L524 268L393 212L262 380L131 341L0 290Z" fill="#940204"></path><path d="M0 561L131 561L262 561L393 561L524 561L655 561L785 561L916 561L1047 561L1178 561L1309 561L1440 561L1440 425L1309 514L1178 497L1047 436L916 447L785 441L655 453L524 408L393 425L262 469L131 503L0 469Z" fill="#820303"></path></svg>